<?xml version="1.0" standalone="no"?>
<!DOCTYPE svg PUBLIC "-//W3C//DTD SVG 20010904//EN"
 "http://www.w3.org/TR/2001/REC-SVG-20010904/DTD/svg10.dtd">
<svg version="1.0" xmlns="http://www.w3.org/2000/svg"
 width="300.000000pt" height="300.000000pt" viewBox="0 0 300.000000 300.000000"
 preserveAspectRatio="xMidYMid meet">
<metadata>
Created by potrace 1.11, written by Peter Selinger 2001-2013
</metadata>
<g transform="translate(0.000000,300.000000) scale(0.100000,-0.100000)"
fill="#000000" stroke="none">
<path d="M230 2425 l0 -33 103 -4 c56 -3 114 -11 129 -18 16 -7 37 -33 50 -59
l23 -46 2 -660 c2 -658 -3 -767 -33 -830 -35 -75 -111 -130 -206 -149 -60 -12
-63 -14 -66 -44 l-3 -32 339 0 c323 0 340 1 345 19 7 27 -11 51 -37 51 -58 0
-131 35 -183 86 -54 54 -67 83 -79 184 -8 67 -11 1359 -3 1355 3 -2 18 -35 34
-72 16 -37 48 -110 72 -161 24 -52 43 -96 43 -98 0 -2 16 -39 36 -81 19 -43
41 -91 49 -108 26 -59 69 -157 293 -660 l227 -510 35 -3 35 -3 137 313 c76
172 185 421 244 553 58 132 164 373 236 535 71 162 132 297 134 300 8 8 -2
-1472 -10 -1505 -22 -91 -81 -126 -215 -128 l-81 -2 0 -32 0 -33 456 0 455 0
-3 32 -3 32 -90 2 c-161 5 -208 41 -224 170 -12 101 -6 1451 7 1497 22 83 72
107 220 107 l92 0 0 33 0 34 -292 -1 -292 -1 -48 -105 c-43 -94 -79 -176 -83
-190 -1 -3 -9 -21 -18 -40 -29 -66 -253 -575 -398 -902 -79 -181 -146 -328
-149 -328 -3 0 -27 51 -54 113 -58 132 -86 196 -114 257 -11 25 -124 281 -252
570 -128 289 -243 548 -256 576 l-23 51 -291 0 -290 0 0 -32z"/>
</g>
</svg>
